<svg xmlns="http://www.w3.org/2000/svg" width="68" height="68" fill="none"><g clip-path="url(#a)"><path fill="#835331" d="m31.593 24.802-9.073 2.186.546 2.269 9.074-2.187-.547-2.268Zm3.991-3.364-4.537 1.093.546 2.269 4.537-1.093-.546-2.269Z"/><path fill="#5F2F0C" d="m21.427 22.45-2.269.546 1.093 4.537 2.269-.547-1.093-4.537Z"/><path fill="#000" d="m55.453 14.25-2.269.547 4.373 18.147 2.268-.546-4.372-18.148Zm2.104 18.696-2.269.546.547 2.269 2.268-.547-.546-2.268Z"/><path fill="#835331" d="m57.01 30.676-2.268.547.547 2.268 2.268-.547-.547-2.268Z"/><path fill="#000" d="m52.638 12.528-2.268.546.546 2.269 2.269-.547-.547-2.268Zm3.197 23.23-2.268.547.546 2.268 2.269-.546-.547-2.269Z"/><path fill="#835331" d="m54.195 28.953-2.268.547.547 2.268 2.268-.546-.547-2.269Z"/><path fill="#000" d="m49.823 10.805-2.268.547.546 2.268 2.269-.547-.547-2.268Zm4.29 27.77-2.268.546.546 2.268 2.269-.546-.547-2.269Z"/><path fill="#835331" d="m53.567 36.305-2.269.547.547 2.268 2.268-.547-.546-2.268Zm-2.187-9.07-2.268.546.546 2.269 2.269-.547-.547-2.268Z"/><path fill="#000" d="m47.008 9.086-2.268.547.546 2.268 2.269-.546-.547-2.269Zm5.383 32.305-2.268.547.546 2.268 2.269-.547-.547-2.268Z"/><path fill="#835331" d="m50.752 34.586-2.269.547.547 2.268 2.268-.546-.546-2.269Zm-2.186-9.074-2.269.547.547 2.268 2.268-.547-.547-2.268Z"/><path fill="#000" d="m44.193 7.364-31.758 7.652.547 2.268L44.74 9.632l-.547-2.268Zm6.477 36.839-2.269.547.546 2.268 2.269-.546-.547-2.269Z"/><path fill="#835331" d="m50.123 41.938-2.269.546.547 2.269 2.268-.547-.546-2.268Zm-2.186-9.074-2.269.546.547 2.269 2.268-.547-.546-2.268Zm.711-16.972.546 2.268-2.268.547 1.093 4.537-2.268.546.546 2.269-2.268.546-.547-2.268-2.268.546-.547-2.268 2.268-.547-.546-2.268 2.268-.547-.546-2.268 4.537-1.093Z"/><path fill="#5F2F0C" d="m44.11 16.985-2.268.546.547 2.269 2.268-.547-.546-2.268Z"/><path fill="#000" d="m48.947 47.02-2.268.546.547 2.269 2.268-.547-.547-2.268Z"/><path fill="#835331" d="m47.308 40.215-2.269.547.547 2.268 2.268-.546-.546-2.269Zm-2.186-9.074-2.269.547.547 2.268 2.268-.547-.546-2.268Z"/><path fill="#000" d="m47.226 49.836-2.269.547.547 2.268 2.268-.546-.546-2.269Z"/><path fill="#835331" d="m46.68 47.567-2.27.546.547 2.269 2.269-.547-.547-2.268Zm-2.187-9.075-2.269.547.547 2.268 2.268-.546-.546-2.269Z"/><path fill="#5F2F0C" d="m42.389 19.797-4.537 1.094.547 2.268 4.536-1.093-.546-2.268Z"/><path fill="#835331" d="m43.864 45.844-2.268.547.546 2.268 2.269-.547-.547-2.268Zm-2.186-9.074-2.268.546.546 2.269 2.268-.547-.546-2.268Z"/><path fill="#000" d="m45.504 52.65-4.537 1.092.547 2.269 4.536-1.094-.546-2.268Z"/><path fill="#FECF8F" d="m44.41 48.113 1.094 4.537-4.537 1.093-.547-2.268-2.268.546-.547-2.268 2.269-.547-.547-2.268 2.269-.547.546 2.269 2.269-.547Z"/><path fill="#835331" d="m41.05 44.121-2.27.547.547 2.268 2.269-.546-.547-2.269Zm-1.723 2.817-2.268.546.546 2.269 2.269-.547-.547-2.268Z"/><path fill="#5F2F0C" d="m37.306 18.626-6.806 1.64.547 2.268 6.805-1.64-.546-2.268Z"/><path fill="#000" d="m40.42 51.473-4.537 1.093.547 2.269 4.537-1.093-.547-2.269Z"/><path fill="#835331" d="m37.605 49.75-2.268.547.546 2.268 2.269-.546-.547-2.269Z"/><path fill="#BC703C" d="m53.184 14.798 3.826 15.88-2.268.546-.547-2.269-2.268.547-.547-2.269-2.268.547-.547-2.268-2.268.546-.546-2.268 2.268-.547-1.093-4.537 2.268-.546-.546-2.269-6.806 1.64.547 2.268-4.537 1.093-.546-2.268-6.806 1.64 1.093 4.537-9.073 2.186-1.093-4.537 2.268-.547-.547-2.268 2.269-.547-.547-2.268 4.537-1.093-.546-2.269L44.74 9.633l.546 2.268 2.269-.547.546 2.269 2.269-.547.546 2.269 2.269-.547Z"/><path fill="#835331" d="m35.883 52.567-2.268.546.547 2.269 2.268-.547-.547-2.268Z"/><path fill="#5F2F0C" d="m33.697 43.492-2.268.547.547 2.268 2.268-.546-.547-2.269ZM28.86 13.458l-4.536 1.093.546 2.268 4.537-1.093-.546-2.268Z"/><path fill="#000" d="m36.43 54.837-4.537 1.093.547 2.268 4.537-1.093-.547-2.268Z"/><path fill="#5F2F0C" d="m31.976 46.309-2.269.547.547 2.268 2.268-.547-.546-2.268ZM24.87 16.82l-2.268.547.546 2.269 2.269-.547-.547-2.268Z"/><path fill="#000" d="m31.347 53.66-2.269.547.547 2.268 2.268-.546-.546-2.269Z"/><path fill="#BC703C" d="m38.234 42.4 1.093 4.537-2.268.547.546 2.268-2.268.546.546 2.269-2.268.546.547 2.269-2.269.546-.546-2.268-2.269.547-.546-2.269 2.268-.547-.546-2.268 2.268-.546-.546-2.269 2.268-.546-.547-2.269 4.537-1.093Z"/><path fill="#5F2F0C" d="m30.254 49.121-2.269.547.547 2.268 2.268-.546-.546-2.269Zm-2.187-9.07-2.268.547.547 2.268 2.268-.547-.547-2.268Zm-4.919-20.418-2.268.547.547 2.268 2.268-.546-.547-2.269Z"/><path fill="#000" d="m28.532 51.938-2.269.546.547 2.269 2.268-.547-.546-2.268Z"/><path fill="#BC703C" d="m32.604 38.959 1.093 4.536-2.268.547.547 2.268-2.269.547.547 2.269-2.269.546.547 2.268-2.269.547-.546-2.269-2.269.547-.546-2.268 2.268-.547-.546-2.268 2.268-.547-.546-2.268 2.268-.547-.547-2.268 4.537-1.093Z"/><path fill="#5F2F0C" d="m26.346 42.864-2.269.546.547 2.269 2.268-.547-.546-2.268Z"/><path fill="#000" d="m25.717 50.215-2.269.547.547 2.268 2.268-.546-.546-2.269Z"/><path fill="#5F2F0C" d="m24.624 45.68-2.269.547.547 2.268 2.268-.547-.546-2.268Zm-2.186-9.074-2.269.546.547 2.269 2.268-.547-.547-2.268Z"/><path fill="#000" d="m22.902 48.496-2.269.547.547 2.268 2.268-.546-.546-2.269Z"/><path fill="#5F2F0C" d="m20.716 39.422-2.269.547.547 2.268 2.268-.546-.546-2.269Z"/><path fill="#000" d="m20.087 46.774-2.269.546.547 2.269 2.268-.547-.546-2.268Z"/><path fill="#BC703C" d="m26.974 35.513 1.093 4.537-2.268.547.547 2.268-2.269.547.547 2.268-2.269.547.547 2.268-2.269.547-.546-2.269-2.269.547-.546-2.269 2.268-.546-.546-2.269 2.268-.546-.546-2.269 2.268-.546-.547-2.269 4.537-1.093Z"/><path fill="#5F2F0C" d="m18.994 42.235-2.269.546.547 2.269 2.268-.547-.546-2.268Z"/><path fill="#000" d="m12.982 17.285-2.269.547.547 2.268 2.268-.546-.546-2.268Zm4.29 27.766-2.269.547.547 2.268 2.268-.547-.546-2.268Z"/><path fill="#BC703C" d="m21.344 32.068 1.093 4.537-2.268.546.547 2.269-2.269.546.547 2.269-2.269.546.547 2.269-2.268.546-.547-2.268-2.269.546-.546-2.268 2.268-.547-.546-2.268 2.268-.546-.546-2.269 2.268-.546-.546-2.269 4.536-1.093Z"/><path fill="#000" d="m11.26 20.098-2.269.547.547 2.268 2.268-.547-.546-2.268Zm3.197 23.23-2.269.547.547 2.268 2.268-.546-.546-2.269Z"/><path fill="#FECF8F" d="m54.742 31.226 1.093 4.537-4.537 1.093-.546-2.269-2.269.547-.546-2.269-2.269.547-.546-2.269-2.269.547.547 2.268 2.268-.546.547 2.268 2.268-.546.547 2.268 2.268-.546 1.093 4.536-4.536 1.093-.547-2.268-2.269.547-.546-2.269-2.269.547-.546-2.269-2.268.547.546 2.268 2.268-.546.547 2.268 2.268-.546.547 2.268 2.269-.546 1.093 4.536-4.537 1.093-.547-2.268-2.268.547-.547-2.269-2.268.547-.547-2.269-4.537 1.093-1.093-4.537-4.537 1.094-1.093-4.537-4.537 1.093-1.093-4.537-4.536 1.093.546 2.269-2.268.546.546 2.269-2.268.546.546 2.268-2.268.547-3.826-15.879 2.269-.547-.547-2.268 2.268-.547-.546-2.268 2.268-.546-.546-2.269 11.342-2.733.546 2.269-2.268.546.546 2.269-2.268.546.547 2.269-2.269.546 1.093 4.537 2.269-.546.546 2.268 9.074-2.186-.547-2.269 4.537-1.093-.546-2.268 2.268-.547.547 2.269 2.268-.547.547 2.269 2.268-.547.547 2.268 2.268-.546.547 2.268 2.268-.546.547 2.268 2.268-.546.547 2.268 2.268-.546Z"/><path fill="#000" d="m9.538 22.914-2.268.547.546 2.268 2.269-.546-.547-2.269ZM7.816 25.73l-2.268.547L9.92 44.425l2.268-.547-4.372-18.147Z"/></g><defs><clipPath id="a"><path fill="#fff" d="M0 13.21 54.442.095 67.56 54.536 13.117 67.653z"/></clipPath></defs></svg>