<svg xmlns="http://www.w3.org/2000/svg" width="73" height="74" fill="none"><path fill="#D0EDF4" d="M54.75 24.426v-3.042h-3.042v-3.042h-3.041v-3.041h-6.084v3.041h-3.041v3.042H36.5v3.042h-3.042v3.041h-3.041v3.042h-3.042v3.042h-3.042v3.041h-3.041v9.125h3.041v-3.041h3.042v-3.042h6.083v6.083h-3.041v3.042h-3.042v3.042H36.5v-3.042h3.042v-3.042h3.041v-3.041h3.042v-3.042h3.042v-3.042h3.041v-3.041h3.042v-3.042h3.042v-6.083H54.75Zm-3.042 6.083h-3.041v3.042h-6.084v-3.042h-3.041v-6.083h3.041v-3.042h6.084v3.042h3.041v6.083Z"/><path fill="#FFD100" d="M21.292 45.719H18.25v3.041h3.042v-3.04Zm3.041 9.126v6.083H18.25v3.042H9.125v-9.125h3.042v-6.083h6.083v3.041h-3.042v6.084h6.084v-3.042h3.041Zm3.042-3.045h-3.042v3.042h3.042v-3.041Z"/><path fill="#1A6A8A" d="M51.708 24.428v6.084h-3.041v3.041h-6.084v-3.041h-3.041v-6.084h3.041v-3.041h6.084v3.041h3.041Z"/><path fill="#EF9520" d="M33.458 51.803v6.084h-3.041v3.041h-3.042v3.042h-6.083v3.042H6.083V51.803h3.042V45.72h3.042v-3.042h3.041v-3.041h6.084v6.083H18.25v3.042h-6.083v6.083H9.125v9.125h9.125v-3.042h6.083v-6.083h3.042v-3.042h6.083Z"/><path fill="#BC131A" d="M27.375 30.512v3.041h-3.042v3.042h-3.041v3.042h-6.084v3.041H6.083v-6.083h3.042v-3.042h3.042v-3.041h15.208Zm15.208 15.207v15.208h-3.041v3.042H36.5v3.041h-6.083v-9.125h3.041v-6.083H36.5V48.76h3.042v-3.04h3.041Zm-9.125-6.082v6.083h-3.041v3.042h-3.042v3.041h-3.042v3.042h-3.041v3.042h-6.084v-6.084h3.042v-3.041h3.042V45.72h3.041v-3.042h3.042v-3.041h6.083ZM66.917 6.176v15.208h-3.042v3.042h-3.042v3.041h-3.041v-3.041H54.75v-3.042h-3.042v-3.042h-3.041v-3.041h-3.042v-3.042h3.042V9.217h3.041V6.176h15.209Z"/><path fill="#000" d="M36.5 21.387h-3.042v3.041H36.5v-3.041Zm3.042-3.043H36.5v3.041h3.042v-3.041Zm27.375 3.043h-3.042v3.041h3.042v-3.041Zm-3.042 3.039h-3.042v3.041h3.042v-3.041Zm-3.042 3.043h-3.041v3.041h3.041v-3.04Zm-3.041 3.043H54.75v3.041h3.042v-3.041ZM54.75 33.55h-3.042v3.042h3.042v-3.041Zm-3.042 3.044h-3.041v3.041h3.041v-3.041Zm-3.041 3.043h-3.042v3.041h3.042v-3.041ZM9.125 33.55H6.083v3.042h3.042v-3.041Zm3.042-3.038H9.125v3.041h3.042v-3.041Zm-6.084 6.082H3.042v6.083h3.041v-6.083Zm6.084 6.082v3.041H9.125v6.084H6.083v-9.125h6.084Z"/><path fill="#000" d="M21.292 67.01v3.04H3.042V51.8h3.041v15.21h15.209Zm9.125-39.541h-18.25v3.041h18.25v-3.04ZM36.5 67.012h-6.083v3.041H36.5v-3.041Zm-6.083-6.086v6.083h-9.125v-3.042h6.083v-3.041h3.042Zm3.041-36.5h-3.041v3.041h3.041v-3.041Zm6.084 39.543H36.5v3.041h3.042v-3.04ZM42.583 15.3h-3.041v3.042h3.041v-3.041Zm0 45.626h-3.041v3.041h3.041v-3.041Zm6.084-51.707h-3.042v3.041h3.042V9.22Zm-3.042 3.043h-3.042v3.041h3.042v-3.041Zm0 30.414h-3.042v18.25h3.042v-18.25Zm6.083-36.5h-3.041v3.041h3.041V6.176Zm18.25-3.039v18.25h-3.041V6.178H51.708V3.137h18.25Z"/></svg>