<svg xmlns="http://www.w3.org/2000/svg" width="84" height="85" fill="none"><path fill="#C9FBC9" d="M73.5 49.094H70v10.5h3.5v-10.5Zm-7-7v24.5H63v-3.5H49v-14h10.5v-3.5H63v-3.5h3.5Zm-14 24.5H49v7h3.5v-7Zm-3.5-3.5h-3.5v3.5H49v-3.5Z"/><path fill="#fff" d="M35 31.594v-21H10.5v56H42v-3.5h-3.5v-3.5H35v-10.5h3.5v-3.5h14v-14H35Zm-21-14h17.5v3.5H14v-3.5Zm0 7h17.5v3.5H14v-3.5Zm0 7h17.5v3.5H14v-3.5Zm14 24.5H14v-3.5h14v3.5Zm0-7H14v-3.5h14v3.5Zm10.5-7H14v-3.5h24.5v3.5Z"/><path fill="#fff" d="M52.5 24.594v3.5h-14v-14H42v3.5h3.5v3.5H49v3.5h3.5Z"/><path fill="#007D00" d="M49 45.594v17.5H38.5v-3.5h7v-10.5h-7v-3.5H49Zm-10.5 3.5H35v10.5h3.5v-10.5Z"/><path fill="#0CC00C" d="M45.5 49.094h-7v10.5h7v-10.5Zm17.5 14v3.5h-7v10.5H45.5v-7H42v-7h3.5v3.5H49v7h3.5v-7H49v-3.5h14Zm7-14v10.5h3.5v3.5H70v7h-7v-3.5h3.5v-24.5H63v-3.5h7v7h3.5v3.5H70Zm7 0h-3.5v10.5H77v-10.5Zm-14-7v3.5h-3.5v3.5H49v-3.5h7v-3.5h7Z"/><path fill="#000" d="M77 59.594h-3.5v3.5H77v-3.5Zm0-14h-3.5v3.5H77v-3.5Zm-21-24.5h-3.5v3.5H56v-3.5Zm-3.5-3.5H49v3.5h3.5v-3.5Zm-3.5-3.5h-3.5v3.5H49v-3.5Zm-3.5-3.5H42v3.5h3.5v-3.5Zm-3.5-3.5h-3.5v3.5H42v-3.5Zm-3.5-3.5h-28v3.5h28v-3.5Zm-28 3.5H7v3.5h3.5v-3.5Zm-3.5 3.5H3.5v56H7v-56Zm3.5 56H7v3.5h3.5v-3.5Zm35 3.5v7H42v-3.5H10.5v-3.5h35Zm10.5 7H45.5v3.5H56v-3.5Zm7-38.5v3.5h-7v-17.5h3.5v14H63Zm7-3.5h-7v3.5h7v-3.5Zm0 35h-7v3.5h7v-3.5Zm-7-3.5v3.5h-3.5v7H56v-10.5h7Zm17.5-17.5H77v10.5h3.5v-10.5Zm-7 14H70v7h3.5v-7Zm0-24.5H70v7h3.5v-7Z"/><path fill="#A6A6A6" d="M42 66.594H10.5v3.5H42v-3.5Zm-31.5-56H7v56h3.5v-56Zm17.5 42H14v3.5h14v-3.5Zm0-7H14v3.5h14v-3.5Zm10.5-7H14v3.5h24.5v-3.5Zm-7-7H14v3.5h17.5v-3.5Zm0-7H14v3.5h17.5v-3.5Zm0-7H14v3.5h17.5v-3.5Z"/><path fill="#A6A6A6" d="M56 24.594v21h-3.5v-14H35v-21H10.5v-3.5h28v3.5H42v3.5h-3.5v14h14v-3.5H56Z"/><path fill="#A6A6A6" d="M45.5 14.094H42v3.5h3.5v-3.5Zm3.5 3.5h-3.5v3.5H49v-3.5Zm3.5 3.5H49v3.5h3.5v-3.5Z"/></svg>